<?xml version="1.0" encoding="utf-8"?>
<!-- Generator: Adobe Illustrator 27.7.0, SVG Export Plug-In . SVG Version: 6.00 Build 0)  -->
<svg version="1.1" id="Ebene_1" xmlns="http://www.w3.org/2000/svg" xmlns:xlink="http://www.w3.org/1999/xlink" x="0px" y="0px"
	 viewBox="0 0 221 65.6" style="enable-background:new 0 0 221 65.6;" xml:space="preserve">
<style type="text/css">
	.st0{fill-rule:evenodd;clip-rule:evenodd;fill:#F1A73E;}
	.st1{fill-rule:evenodd;clip-rule:evenodd;fill:#FDD43F;}
	.st2{fill-rule:evenodd;clip-rule:evenodd;fill:#C27732;}
	.st3{fill-rule:evenodd;clip-rule:evenodd;fill:#E9408C;}
	.st4{fill-rule:evenodd;clip-rule:evenodd;fill:#BF1E83;}
	.st5{fill-rule:evenodd;clip-rule:evenodd;fill:#409DC1;}
	.st6{fill-rule:evenodd;clip-rule:evenodd;fill:#4275BA;}
	.st7{fill-rule:evenodd;clip-rule:evenodd;fill:#31588D;}
	.st8{fill-rule:evenodd;clip-rule:evenodd;fill:#88207A;}
	.st9{fill:#FFFFFF;}
</style>
<polygon class="st0" points="32.2,65.6 61.2,48.7 44.8,39.2 32.2,46.7 "/>
<polygon class="st1" points="32.2,46.7 44.8,39.2 32.2,32 "/>
<polygon class="st2" points="32.2,65.6 32.2,46.7 16,56.3 "/>
<polygon class="st3" points="16.2,47.8 29.9,39.9 16.2,32.4 "/>
<polygon class="st4" points="16.2,47.8 16.2,32.4 0,23.5 0.2,57.1 "/>
<polygon class="st5" points="23.4,34.3 36.5,26.3 23.4,19 "/>
<polygon class="st6" points="36.5,26.3 52.5,16.6 23.4,0 23.4,19 "/>
<polygon class="st7" points="36.5,26.3 52.5,35.3 52.5,16.6 "/>
<polygon class="st8" points="16.2,32.4 16.2,14.2 0,23.5 "/>
<g>
	<g>
		<path class="st9" d="M88.4,30.9c1.8,1.2,2.7,2.8,2.9,4.7C91,39.5,89,41.5,85,41.7l-11.5,0V21.3h10.9c3.4,0.2,5.3,2.2,5.5,6
			C89.8,29.1,89.3,30.3,88.4,30.9z M77.6,29.5h5.7c1.6,0,2.5-0.9,2.5-2.6c0-1-0.9-1.5-2.5-1.6h-5.8V29.5z M77.6,38.5h6.7
			c1.9,0,2.9-1,2.9-3c0-1.3-1-2-2.9-2h-6.7V38.5z"/>
		<path class="st9" d="M99.6,21.3v11.9c0,1.5,0.5,2.7,1.4,3.4c0.9,0.7,2,1.1,3.4,1.1c1.4,0,2.5-0.4,3.4-1.1c0.9-0.7,1.4-1.9,1.4-3.4
			V21.3h4.1v13c0,2.1-0.8,3.9-2.5,5.3c-1.7,1.5-3.8,2.2-6.3,2.2c-2.5,0-4.7-0.7-6.3-2.2c-1.7-1.5-2.5-3.2-2.5-5.3v-13H99.6z"/>
		<path class="st9" d="M129.3,21.9c1,0.5,2,1.1,2.9,2l-2.7,2.7c-0.9-1.1-2.2-1.6-3.8-1.6c-1.6,0-2.7,0.4-3.1,1.2
			c-0.5,0.8-0.5,1.4,0,2c0.5,0.5,1.5,1,3.1,1.2c1.7,0.2,3.3,0.8,4.7,1.7c1.4,1,2.1,2.5,2.1,4.6c0,1.6-0.8,3-2.3,4.2
			c-1.5,1.2-3.3,1.8-5.3,1.8c-1.9,0-3.5-0.3-4.8-0.8c-1.3-0.5-2.4-1.3-3.3-2.2l2.7-2.7c0.9,1.1,2.5,1.7,4.6,1.9c1.8,0,3-0.4,3.4-1.2
			c0.4-0.8,0.4-1.5,0-2.3c-0.5-0.8-1.6-1.3-3.4-1.4c-1.6-0.2-3.1-0.7-4.5-1.5c-1.4-0.8-2-2.2-2-4.2c0-1.8,0.8-3.3,2.3-4.4
			c1.5-1.1,3.1-1.6,4.8-1.6C126.8,21.3,128.3,21.5,129.3,21.9z"/>
		<path class="st9" d="M136.7,21.2h4.1v20.5h-4.1V21.2z"/>
		<path class="st9" d="M145.5,41.7V21.3h1.4l12.8,12.8V21.3h4.1v20.5h-1.5L149.6,29v12.7H145.5z"/>
		<path class="st9" d="M168.5,41.7V21.3l15,0v3.8h-10.9v4.4h8.2v3.8h-8.2v4.6h10.9v3.8H168.5z"/>
		<path class="st9" d="M199.3,21.9c1,0.5,2,1.1,2.9,2l-2.7,2.7c-0.9-1.1-2.2-1.6-3.8-1.6c-1.6,0-2.7,0.4-3.1,1.2
			c-0.5,0.8-0.5,1.4,0,2c0.5,0.5,1.5,1,3.1,1.2c1.7,0.2,3.3,0.8,4.7,1.7c1.4,1,2.1,2.5,2.1,4.6c0,1.6-0.8,3-2.3,4.2
			c-1.5,1.2-3.3,1.8-5.3,1.8c-1.9,0-3.5-0.3-4.8-0.8c-1.3-0.5-2.4-1.3-3.3-2.2l2.7-2.7c0.9,1.1,2.5,1.7,4.6,1.9c1.8,0,3-0.4,3.4-1.2
			c0.5-0.8,0.5-1.5,0-2.3c-0.4-0.8-1.6-1.3-3.4-1.4c-1.6-0.2-3.1-0.7-4.5-1.5c-1.4-0.8-2-2.2-2-4.2c0-1.8,0.8-3.3,2.3-4.4
			c1.5-1.1,3.1-1.6,4.8-1.6C196.8,21.3,198.2,21.5,199.3,21.9z"/>
		<path class="st9" d="M217.8,21.9c1,0.5,2,1.1,2.9,2l-2.7,2.7c-0.9-1.1-2.2-1.6-3.8-1.6c-1.6,0-2.7,0.4-3.1,1.2
			c-0.5,0.8-0.5,1.4,0,2c0.5,0.5,1.5,1,3.1,1.2c1.7,0.2,3.3,0.8,4.7,1.7c1.4,1,2.1,2.5,2.1,4.6c0,1.6-0.7,3-2.3,4.2
			c-1.5,1.2-3.3,1.8-5.3,1.8c-1.9,0-3.5-0.3-4.8-0.8c-1.3-0.5-2.4-1.3-3.3-2.2l2.7-2.7c0.9,1.1,2.5,1.7,4.6,1.9
			c1.8,0,2.9-0.4,3.4-1.2c0.4-0.8,0.4-1.5,0-2.3c-0.4-0.8-1.6-1.3-3.4-1.4c-1.6-0.2-3.1-0.7-4.5-1.5c-1.4-0.8-2-2.2-2-4.2
			c0-1.8,0.8-3.3,2.3-4.4c1.5-1.1,3.1-1.6,4.8-1.6C215.2,21.3,216.7,21.5,217.8,21.9z"/>
	</g>
</g>
<g>
	<g>
		<path class="st9" d="M93.9,53.1h-3l-0.5,1.1h-1.2l2.6-5.7H93l2.6,5.7h-1.2L93.9,53.1z M92.4,49.7l-1.1,2.4h2.1L92.4,49.7z"/>
		<path class="st9" d="M103.3,54.2h-0.9l-0.7-1.8l-0.6-1.8l-0.6,1.8l-0.7,1.8h-0.9l-2.1-5.7H98l1.3,4.1l1.4-4.1h0.7l1.4,4.1l1.3-4.1
			h1.2L103.3,54.2z"/>
		<path class="st9" d="M112.2,54.2H108c0-1.9,0-3.8,0-5.7h4.3v1H109v1.3h3.1v1H109v1.3h3.2V54.2z"/>
		<path class="st9" d="M118.7,49.9c-0.2-0.3-0.7-0.6-1.4-0.6c-0.8,0-1.2,0.3-1.2,0.8c0,0.5,0.6,0.6,1.3,0.7c1.2,0.1,2.3,0.5,2.3,1.8
			c0,1.3-1.1,1.8-2.4,1.8c-1.2,0-2.1-0.4-2.5-1.4l0.9-0.5c0.3,0.6,0.9,0.9,1.6,0.9c0.7,0,1.3-0.2,1.3-0.9c0-0.5-0.6-0.8-1.3-0.8
			c-1.2-0.1-2.2-0.4-2.2-1.7c0-1.2,1.2-1.7,2.2-1.7c0.9,0,1.8,0.3,2.2,1.1L118.7,49.9z"/>
		<path class="st9" d="M128.1,51.4c0,1.5-0.9,2.9-2.9,2.9c-2,0-2.9-1.4-2.9-2.9c0-1.5,1-3,2.9-3C127.2,48.4,128.2,49.9,128.1,51.4z
			 M123.3,51.4c0,0.9,0.5,1.9,1.9,1.9c1.3,0,1.8-1,1.9-1.9c0-1-0.5-2-1.9-2C123.9,49.4,123.3,50.4,123.3,51.4z"/>
		<path class="st9" d="M135.9,50.1l-1.9,2.5h-0.2l-1.8-2.5v4.1h-1.1v-5.7h1.2l1.8,2.5l1.8-2.5h1.2v5.7h-1.1V50.1z"/>
		<path class="st9" d="M144.1,54.2h-4.3c0-1.9,0-3.8,0-5.7h4.3v1h-3.2v1.3h3.1v1h-3.1v1.3h3.2V54.2z"/>
		<path class="st9" d="M152,49.5h-1.8v-1c1.6,0,3,0,4.7,0v1h-1.8v4.7H152V49.5z"/>
		<path class="st9" d="M161.5,53.1h-3l-0.5,1.1h-1.2l2.6-5.7h1.2l2.6,5.7H162L161.5,53.1z M160.1,49.7l-1.1,2.4h2.1L160.1,49.7z"/>
		<path class="st9" d="M169.6,49.9c-0.4-0.4-0.9-0.6-1.4-0.6c-1.2,0-2,0.9-2,2.1c0,0.9,0.5,1.9,2,1.9c0.5,0,0.8-0.1,1.3-0.5v-1H168
			v-1h2.4v2.4c-0.6,0.6-1.3,1-2.3,1c-2.1,0-3-1.4-3-2.9c0-1.6,1-3.1,3-3.1c0.8,0,1.5,0.3,2.1,0.9L169.6,49.9z"/>
		<path class="st9" d="M174.3,48.5v4.7h2.9v1h-4v-5.7H174.3z"/>
		<path class="st9" d="M180,54.2v-5.7h1.1v5.7H180z"/>
		<path class="st9" d="M187.8,48.5h1.1v5.7h-0.7v0l-3-3.9v3.8h-1.1v-5.7h0.9l2.8,3.5V48.5z"/>
		<path class="st9" d="M196.1,54.2h-4.3c0-1.9,0-3.8,0-5.7h4.3v1h-3.2v1.3h3.1v1h-3.1v1.3h3.2V54.2z"/>
		<path class="st9" d="M202.5,49.9c-0.2-0.3-0.7-0.6-1.4-0.6c-0.8,0-1.2,0.3-1.2,0.8c0,0.5,0.6,0.6,1.3,0.7c1.2,0.1,2.3,0.5,2.3,1.8
			c0,1.3-1.1,1.8-2.4,1.8c-1.2,0-2.1-0.4-2.5-1.4l0.9-0.5c0.3,0.6,0.9,0.9,1.6,0.9c0.7,0,1.3-0.2,1.3-0.9c0-0.5-0.6-0.8-1.3-0.8
			c-1.2-0.1-2.2-0.4-2.2-1.7c0-1.2,1.2-1.7,2.2-1.7c0.9,0,1.8,0.3,2.2,1.1L202.5,49.9z"/>
	</g>
</g>
</svg>
