<?xml version="1.0" encoding="UTF-8"?>
<svg id="Ebene_1" xmlns="http://www.w3.org/2000/svg" version="1.1" viewBox="0 0 61.2 65.6">
  <!-- Generator: Adobe Illustrator 29.0.0, SVG Export Plug-In . SVG Version: 2.1.0 Build 186)  -->
  <defs>
    <style>
      .st0 {
        fill: #409dc1;
      }

      .st0, .st1, .st2, .st3, .st4, .st5, .st6, .st7, .st8 {
        fill-rule: evenodd;
      }

      .st1 {
        fill: #88207a;
      }

      .st2 {
        fill: #4275ba;
      }

      .st3 {
        fill: #f1a73e;
      }

      .st4 {
        fill: #31588d;
      }

      .st5 {
        fill: #bf1e83;
      }

      .st6 {
        fill: #fdd43f;
      }

      .st7 {
        fill: #c27732;
      }

      .st8 {
        fill: #e9408c;
      }
    </style>
  </defs>
  <polygon class="st3" points="32.2 65.6 61.2 48.7 44.8 39.2 32.2 46.7 32.2 65.6"/>
  <polygon class="st6" points="32.2 46.7 44.8 39.2 32.2 32 32.2 46.7"/>
  <polygon class="st7" points="32.2 65.6 32.2 46.7 16 56.3 32.2 65.6"/>
  <polygon class="st8" points="16.2 47.8 29.9 39.9 16.2 32.4 16.2 47.8"/>
  <polygon class="st5" points="16.2 47.8 16.2 32.4 0 23.5 .2 57.1 16.2 47.8"/>
  <polygon class="st0" points="23.4 34.3 36.5 26.3 23.4 19 23.4 34.3"/>
  <polygon class="st2" points="36.5 26.3 52.5 16.6 23.4 0 23.4 19 36.5 26.3"/>
  <polygon class="st4" points="36.5 26.3 52.5 35.3 52.5 16.6 36.5 26.3"/>
  <polygon class="st1" points="16.2 32.4 16.2 14.2 0 23.5 16.2 32.4"/>
</svg>